<svg width="64" height="64" viewBox="0 0 64 64" fill="none" xmlns="http://www.w3.org/2000/svg">
<path d="M53.3337 46.6693C55.5427 46.6693 57.3337 48.4602 57.3337 50.6693C57.3337 52.7484 55.7472 54.4571 53.7189 54.651L53.3337 54.6693H10.667C8.45785 54.6693 6.66699 52.8783 6.66699 50.6693C6.66699 48.5901 8.25335 46.8814 10.2818 46.6876L10.667 46.6693H53.3337ZM53.3337 28.0026C55.5427 28.0026 57.3337 29.7935 57.3337 32.0026C57.3337 34.2117 55.5427 36.0026 53.3337 36.0026H10.667C8.45785 36.0026 6.66699 34.2117 6.66699 32.0026C6.66699 29.7935 8.45785 28.0026 10.667 28.0026H53.3337ZM53.3337 9.33594C55.5427 9.33594 57.3337 11.1268 57.3337 13.3359C57.3337 15.5451 55.5427 17.3359 53.3337 17.3359H10.667C8.45785 17.3359 6.66699 15.5451 6.66699 13.3359C6.66699 11.1268 8.45785 9.33594 10.667 9.33594H53.3337Z" fill="#030712"/>
</svg>
